<svg width="38" height="30" viewBox="0 0 38 30" fill="none" xmlns="http://www.w3.org/2000/svg">
<path d="M34.6602 9.43359C33.4656 9.43359 32.3332 9.70412 31.3203 10.1865V8.32031C31.3203 4.02327 27.8244 0.527344 23.5273 0.527344H14.4727C10.1756 0.527344 6.67969 4.02327 6.67969 8.32031V10.1865C5.66682 9.70412 4.53439 9.43359 3.33984 9.43359C1.49825 9.43359 0 10.9318 0 12.7734C0 14.615 1.49825 16.1133 3.33984 16.1133C3.95371 16.1133 4.45312 16.6127 4.45312 17.2266V26.1328C4.45312 26.7476 4.95158 27.2461 5.56641 27.2461H6.67969V28.3594C6.67969 28.9742 7.17814 29.4727 7.79297 29.4727C8.4078 29.4727 8.90625 28.9742 8.90625 28.3594V27.2461H29.0938V28.3594C29.0938 28.9742 29.5922 29.4727 30.207 29.4727C30.8219 29.4727 31.3203 28.9742 31.3203 28.3594V27.2461H32.4336C33.0484 27.2461 33.5469 26.7476 33.5469 26.1328V17.2266C33.5469 16.6127 34.0463 16.1133 34.6602 16.1133C36.5017 16.1133 38 14.615 38 12.7734C38 10.9318 36.5017 9.43359 34.6602 9.43359ZM14.4727 2.75391H23.5273C26.5967 2.75391 29.0938 5.251 29.0938 8.32031V11.7786C28.4935 12.3919 27.9932 13.1033 27.6201 13.8867H10.3799C10.0067 13.1033 9.50653 12.3919 8.90625 11.7786V8.32031C8.90625 5.251 11.4033 2.75391 14.4727 2.75391ZM26.8672 17.2266V18.3398H11.1328V17.2266C11.1328 16.8486 11.1052 16.477 11.053 16.1133H26.947C26.8948 16.477 26.8672 16.8486 26.8672 17.2266ZM11.1328 20.5664H26.8672V25.0195H11.1328V20.5664ZM3.33984 13.8867C2.72598 13.8867 2.22656 13.3873 2.22656 12.7734C2.22656 12.1596 2.72598 11.6602 3.33984 11.6602C6.40916 11.6602 8.90625 14.1572 8.90625 17.2266V25.0195H6.67969V17.2266C6.67969 15.385 5.18143 13.8867 3.33984 13.8867ZM34.6602 13.8867C32.8186 13.8867 31.3203 15.385 31.3203 17.2266V25.0195H29.0938V17.2266C29.0938 14.1572 31.5908 11.6602 34.6602 11.6602C35.274 11.6602 35.7734 12.1596 35.7734 12.7734C35.7734 13.3873 35.274 13.8867 34.6602 13.8867Z" fill="white"/>
</svg>
